<svg width="10" height="10" viewBox="0 0 10 10" xmlns="http://www.w3.org/2000/svg"><title>external</title><g fill="#EA4C89" fill-rule="evenodd"><path d="M9.38 0H5.945c-.34 0-.617.276-.617.616 0 .34.277.616.617.616h1.95L4.64 4.485c-.116.116-.18.27-.18.436 0 .165.064.32.18.436.117.117.272.18.436.18.165 0 .32-.063.436-.18l3.253-3.252v1.95c0 .34.276.616.616.616.34 0 .617-.277.617-.616V.616C9.997.276 9.72 0 9.38 0z"/><path d="M7.082 8.94H1.056V2.916h4.532L6.645 1.86H.528c-.292 0-.528.235-.528.527V9.47c0 .29.236.527.528.527H7.61c.292 0 .53-.236.53-.528V3.35L7.08 4.41v4.53z"/></g></svg>